<?xml version="1.0" standalone="no"?>
<!DOCTYPE svg PUBLIC "-//W3C//DTD SVG 20010904//EN"
 "http://www.w3.org/TR/2001/REC-SVG-20010904/DTD/svg10.dtd">
<svg version="1.0" xmlns="http://www.w3.org/2000/svg"
 width="1200.000000pt" height="300.000000pt" viewBox="0 0 1200.000000 300.000000"
 preserveAspectRatio="xMidYMid meet">

<g transform="translate(0.000000,300.000000) scale(0.100000,-0.100000)"
fill="#FF0000FF" stroke="none">
<path d="M4200 2989 c-881 -35 -1299 -192 -1880 -703 -121 -107 -1187 -1156
-1895 -1865 l-420 -421 844 0 843 0 342 333 c329 320 725 703 986 952 383 367
562 477 875 539 268 53 408 56 2735 56 l2125 0 560 560 560 560 -2745 -2
c-1510 0 -2828 -4 -2930 -9z"/>
<path d="M8695 1500 l-1500 -1500 900 0 900 0 1500 1500 1500 1500 -900 0
-900 0 -1500 -1500z"/>
<path d="M4312 1679 c-458 -28 -688 -109 -954 -340 -62 -53 -392 -377 -733
-718 l-620 -621 784 0 785 0 250 248 c255 252 305 293 414 337 149 60 83 58
1757 62 l1531 4 519 519 520 520 -2060 -1 c-1133 -1 -2120 -6 -2193 -10z"/>
<path d="M9760 345 c0 -24 3 -25 60 -25 l60 0 0 -160 0 -160 35 0 35 0 0 160
0 160 55 0 c52 0 55 1 55 25 l0 25 -150 0 -150 0 0 -25z"/>
<path d="M10110 186 l0 -186 30 0 29 0 3 143 3 142 50 -140 c46 -129 52 -140
77 -143 29 -3 25 -10 93 183 16 44 32 84 37 89 4 6 8 -54 8 -132 l0 -142 30 0
30 0 0 185 0 185 -48 0 -48 0 -28 -87 c-44 -135 -67 -195 -74 -188 -4 3 -27
65 -52 138 l-46 132 -47 3 -47 3 0 -185z"/>
</g>
</svg>
