<?xml version="1.0" standalone="no"?>
<!DOCTYPE svg PUBLIC "-//W3C//DTD SVG 20010904//EN"
 "http://www.w3.org/TR/2001/REC-SVG-20010904/DTD/svg10.dtd">
<svg version="1.0" xmlns="http://www.w3.org/2000/svg"
 width="512.000000pt" height="512.000000pt" viewBox="0 0 512.000000 512.000000"
 preserveAspectRatio="xMidYMid meet">

<g transform="translate(0.000000,512.000000) scale(0.100000,-0.100000)"
fill="#000000" stroke="none">
<path d="M1960 3510 c-320 -57 -606 -207 -840 -440 -94 -95 -1120 -1377 -1120
-1401 0 -38 23 -69 59 -80 23 -7 171 -9 422 -7 325 3 389 5 404 18 36 30 265
323 271 347 14 55 -72 107 -117 71 -9 -7 -63 -71 -119 -143 -57 -71 -109 -133
-114 -137 -14 -10 -566 -10 -566 0 0 4 211 270 468 592 496 619 577 709 735
814 142 95 311 166 502 213 63 15 161 17 928 20 l859 4 -46 -58 c-25 -32 -105
-132 -178 -223 l-133 -165 -660 -5 -660 -5 -88 -28 c-48 -15 -120 -43 -160
-63 -169 -85 -237 -147 -439 -399 -139 -174 -168 -215 -168 -242 0 -61 72 -95
118 -55 11 9 84 98 163 196 78 99 163 200 188 224 102 99 269 186 405 211 39
7 284 11 695 12 350 1 647 4 661 8 28 7 526 620 537 659 4 16 -1 33 -14 50
l-20 27 -934 2 c-870 1 -941 0 -1039 -17z"/>
<path d="M4213 3498 c-69 -74 -1437 -1794 -1447 -1820 -8 -23 -7 -32 10 -55
12 -15 32 -31 45 -34 41 -12 773 -10 805 2 40 14 1488 1825 1492 1866 2 18 -5
36 -18 51 l-21 22 -417 0 -418 0 -31 -32z m655 -136 c-7 -10 -303 -382 -658
-825 l-645 -807 -283 0 c-202 0 -283 3 -280 11 2 6 296 377 653 824 l650 814
288 0 c278 1 288 0 275 -17z"/>
<path d="M2070 2614 c-88 -23 -214 -90 -276 -147 -69 -62 -632 -762 -641 -795
-7 -29 24 -74 58 -83 40 -11 773 -10 805 1 20 7 65 56 139 150 l110 139 210 2
c116 0 221 4 235 8 28 7 526 620 537 659 4 16 -1 33 -14 50 l-20 27 -544 2
c-447 1 -554 -1 -599 -13z m896 -191 c-25 -32 -105 -132 -178 -223 l-133 -165
-224 -3 c-197 -2 -227 -5 -244 -20 -11 -9 -67 -77 -125 -149 l-105 -133 -284
0 c-156 0 -283 3 -283 6 0 13 461 583 499 617 52 47 120 86 189 108 51 16 100
18 495 18 l438 1 -45 -57z"/>
</g>
</svg>
